<svg width="24" height="24" viewBox="0 0 24 24" fill="none" xmlns="http://www.w3.org/2000/svg">
<path d="M5 9L2 9L1.98877 4.98865" stroke="black" stroke-width="2" stroke-linecap="round" stroke-linejoin="round"/>
<path d="M2.85136 16.0376C3.78548 18.1542 5.4246 19.8814 7.48944 20.925C9.55427 21.9685 11.9171 22.2638 14.1752 21.7606C16.4334 21.2573 18.4472 19.9866 19.8735 18.1651C21.2998 16.3435 22.0504 14.0837 21.9974 11.7708C21.9443 9.45782 21.091 7.23482 19.5826 5.48053C18.0743 3.72625 16.0044 2.54922 13.7256 2.15C11.4467 1.75079 9.09994 2.15408 7.08511 3.29116C5.07027 4.42825 3.51204 6.22878 2.67591 8.38595" stroke="black" stroke-width="2" stroke-linecap="round"/>
<path d="M14.5 8H11C9.89543 8 9 8.89543 9 10C9 11.1046 9.89543 12 11 12H13C14.1046 12 15 12.8954 15 14C15 15.1046 14.1046 16 13 16H9.5M12 6.5V17.5" stroke="black" stroke-width="2" stroke-linecap="round" stroke-linejoin="round"/>
</svg>
