<svg width="24" height="24" viewBox="0 0 24 24" fill="none" xmlns="http://www.w3.org/2000/svg">
<path d="M19.5527 1.10547C19.8626 0.950515 20.2306 0.967336 20.5254 1.14941C20.8202 1.33162 21 1.65343 21 2V11.2559C20.3959 10.8344 19.7225 10.5061 19 10.291V3.61816L18.4473 3.89453C18.1657 4.03529 17.8343 4.03529 17.5527 3.89453L16 3.11816L14.4473 3.89453C14.1657 4.03529 13.8343 4.03529 13.5527 3.89453L12 3.11816L10.4473 3.89453C10.1657 4.03529 9.83426 4.03529 9.55273 3.89453L8 3.11816L6.44727 3.89453C6.16574 4.03529 5.83426 4.03529 5.55273 3.89453L5 3.61816V20.3818L5.55273 20.1055C5.83426 19.9647 6.16574 19.9647 6.44727 20.1055L8 20.8818L9.55273 20.1055C9.83426 19.9647 10.1657 19.9647 10.4473 20.1055L10.8213 20.292C11.3242 21.234 12.0373 22.0459 12.8965 22.6689L12.4473 22.8945C12.1657 23.0353 11.8343 23.0353 11.5527 22.8945L10 22.1182L8.44727 22.8945C8.16574 23.0353 7.83426 23.0353 7.55273 22.8945L6 22.1182L4.44727 22.8945C4.13736 23.0495 3.76939 23.0327 3.47461 22.8506C3.1798 22.6684 3 22.3466 3 22V2C3 1.65343 3.1798 1.33162 3.47461 1.14941C3.76939 0.967336 4.13736 0.950515 4.44727 1.10547L6 1.88184L7.55273 1.10547L7.66016 1.05957C7.91613 0.967049 8.20081 0.982244 8.44727 1.10547L10 1.88184L11.5527 1.10547L11.6602 1.05957C11.9161 0.967049 12.2008 0.982244 12.4473 1.10547L14 1.88184L15.5527 1.10547L15.6602 1.05957C15.9161 0.967049 16.2008 0.982244 16.4473 1.10547L18 1.88184L19.5527 1.10547ZM10.0723 16C10.0255 16.3267 10 16.6604 10 17C10 17.3396 10.0255 17.6733 10.0723 18H8C7.44772 18 7 17.5523 7 17C7 16.4477 7.44772 16 8 16H10.0723ZM12.1025 12C11.5164 12.5742 11.031 13.2502 10.6748 14H8C7.44772 14 7 13.5523 7 13C7 12.4477 7.44772 12 8 12H12.1025ZM15 5C16.1046 5 17 5.89543 17 7V8C17 9.10457 16.1046 10 15 10H9C7.89543 10 7 9.10457 7 8V7C7 5.89543 7.89543 5 9 5H15ZM9 8H15V7H9V8Z" fill="black"/>
<path d="M17 12C19.7614 12 22 14.2386 22 17C22 19.7614 19.7614 22 17 22C14.2386 22 12 19.7614 12 17C12 14.2386 14.2386 12 17 12ZM19.707 14.293C19.3165 13.9025 18.6835 13.9025 18.293 14.293L17 15.5859L15.707 14.293C15.3165 13.9025 14.6835 13.9025 14.293 14.293C13.9025 14.6835 13.9025 15.3165 14.293 15.707L15.5859 17L14.293 18.293C13.9025 18.6835 13.9025 19.3165 14.293 19.707C14.6835 20.0975 15.3165 20.0975 15.707 19.707L17 18.4141L18.293 19.707C18.6835 20.0975 19.3165 20.0975 19.707 19.707C20.0975 19.3165 20.0975 18.6835 19.707 18.293L18.4141 17L19.707 15.707C20.0975 15.3165 20.0975 14.6835 19.707 14.293Z" fill="black"/>
</svg>
