<svg width="24" height="24" viewBox="0 0 24 24" fill="none" xmlns="http://www.w3.org/2000/svg">
<path d="M16.2956 21.0304C14.9377 21.6763 13.4518 22.0077 11.9482 21.9999C10.4446 21.9921 8.96215 21.6453 7.61111 20.9854C6.26006 20.3255 5.07523 19.3694 4.14475 18.1883C3.21428 17.0072 2.56214 15.6315 2.23684 14.1635C1.91154 12.6955 1.92146 11.173 2.26587 9.70943C2.61028 8.24581 3.28031 6.87869 4.2261 5.70981C5.17189 4.54093 6.36909 3.60038 7.72862 2.95813C9.08815 2.31589 10.575 1.9885 12.0786 2.00031" stroke="black" stroke-width="2" stroke-linecap="round"/>
<path d="M19.0711 19.0711C20.2464 17.8957 21.1102 16.4459 21.5844 14.8528C22.0586 13.2597 22.1282 11.5735 21.7869 9.9467C21.4456 8.31992 20.7042 6.80388 19.6297 5.53567C18.5552 4.26746 17.1815 3.2871 15.6329 2.68324" stroke="black" stroke-width="2" stroke-linecap="round" stroke-dasharray="2 4"/>
<path d="M12 7V13L16 15" stroke="black" stroke-width="2" stroke-linecap="round" stroke-linejoin="round"/>
</svg>
