<svg width="24" height="24" viewBox="0 0 24 24" fill="none" xmlns="http://www.w3.org/2000/svg">
<path d="M16 16L18 18L22 14" stroke="black" stroke-width="2" stroke-linecap="round" stroke-linejoin="round"/>
<path d="M21 9.99999V7.99999C20.9996 7.64927 20.9071 7.3048 20.7315 7.00116C20.556 6.69751 20.3037 6.44536 20 6.26999L13 2.26999C12.696 2.09446 12.3511 2.00204 12 2.00204C11.6489 2.00204 11.304 2.09446 11 2.26999L4 6.26999C3.69626 6.44536 3.44398 6.69751 3.26846 7.00116C3.09294 7.3048 3.00036 7.64927 3 7.99999V16C3.00036 16.3507 3.09294 16.6952 3.26846 16.9988C3.44398 17.3025 3.69626 17.5546 4 17.73L11 21.73C11.304 21.9055 11.6489 21.9979 12 21.9979C12.3511 21.9979 12.696 21.9055 13 21.73L15 20.59" stroke="black" stroke-width="2" stroke-linecap="round" stroke-linejoin="round"/>
<path d="M7.5 4.26999L16.5 9.41999" stroke="black" stroke-width="2" stroke-linecap="round" stroke-linejoin="round"/>
<path d="M3.29004 7L12 12L20.71 7" stroke="black" stroke-width="2" stroke-linecap="round" stroke-linejoin="round"/>
<path d="M12 22V12" stroke="black" stroke-width="2" stroke-linecap="round" stroke-linejoin="round"/>
</svg>
