<?xml version="1.0" encoding="UTF-8"?>
<svg width="35px" height="35px" version="1.1" xmlns="http://www.w3.org/2000/svg" xmlns:xlink="http://www.w3.org/1999/xlink">
    <!-- Generator: Sketch 63.1 (92452) - https://sketch.com -->
    <title>pause</title>
    <desc>Created with Sketch.</desc>
    <g id="pause" stroke="none" stroke-width="1" fill="none" fill-rule="evenodd" transform="scale(1.5)">
        <path d="M8,4 C8.55228475,4 9,4.44771525 9,5 L9,19 C9,19.5522847 8.55228475,20 8,20 C7.44771525,20 7,19.5522847 7,19 L7,5 C7,4.44771525 7.44771525,4 8,4 Z M16,4 C16.5522847,4 17,4.44771525 17,5 L17,19 C17,19.5522847 16.5522847,20 16,20 C15.4477153,20 15,19.5522847 15,19 L15,5 C15,4.44771525 15.4477153,4 16,4 Z" id="Combined-Shape" fill="#007bff"></path>
    </g>
</svg>