<?xml version="1.0" encoding="UTF-8"?>
<svg width="35px" height="35px" version="1.1" xmlns="http://www.w3.org/2000/svg" xmlns:xlink="http://www.w3.org/1999/xlink">
    <!-- Generator: Sketch 63.1 (92452) - https://sketch.com -->
    <title>Download</title>
    <desc>Created with Sketch.</desc>
    <g id="Download" stroke="none" stroke-width="1" fill="none" fill-rule="evenodd" transform="scale(1.5)">
        <path d="M21,20 C21.5522847,20 22,20.4477153 22,21 C22,21.5522847 21.5522847,22 21,22 L3,22 C2.44771525,22 2,21.5522847 2,21 C2,20.4477153 2.44771525,20 3,20 L21,20 Z M12,2 C12.5522847,2 13,2.44771525 13,3 L13,10.999 L15.8649584,11 C16.4172431,11 16.8649584,11.4477153 16.8649584,12 C16.8649584,12.2339365 16.7829422,12.4604694 16.6331797,12.6401844 L12.7682213,17.2781345 C12.4146572,17.7024114 11.7840925,17.7597354 11.3598156,17.4061713 C11.3133525,17.3674521 11.2704979,17.3245975 11.2317787,17.2781345 L7.36682033,12.6401844 C7.01325625,12.2159075 7.07058032,11.5853428 7.49485721,11.2317787 C7.67457221,11.0820162 7.90110511,11 8.13504161,11 L11,10.999 L11,3 C11,2.44771525 11.4477153,2 12,2 Z" id="Combined-Shape" fill="#D0BCFF"></path>
    </g>
</svg>