<?xml version="1.0" encoding="utf-8"?>
<!-- Generator: Adobe Illustrator 19.2.1, SVG Export Plug-In . SVG Version: 6.00 Build 0)  -->
<svg version="1.1" id="Layer_1" xmlns="http://www.w3.org/2000/svg" xmlns:xlink="http://www.w3.org/1999/xlink" x="0px" y="0px"
	 viewBox="0 0 31 13" style="enable-background:new 0 0 31 13;" xml:space="preserve">
<style type="text/css">
	.st0{fill:#FFFFFF;}
	.st1{fill:url(#SVGID_1_);}
	.st2{fill:url(#SVGID_2_);}
	.st3{fill:url(#SVGID_5_);}
	.st4{fill:none;stroke:#F3F3F3;stroke-width:2;stroke-miterlimit:10;}
	.st5{fill:#F8F9FA;}
	.st6{fill:#2E2E2E;}
	.st7{fill:#4FA1D9;}
	.st8{fill:url(#SVGID_6_);}
	.st9{fill:url(#SVGID_7_);}
	.st10{fill:url(#SVGID_8_);}
	.st11{fill:none;stroke:#393939;stroke-miterlimit:10;}
	.st12{fill:none;stroke:#DEDEDD;stroke-miterlimit:10;}
	.st13{clip-path:url(#SVGID_18_);}
	.st14{fill:#F3F3F3;}
	.st15{fill:#C1C1C1;}
	.st16{fill:#AAABAB;}
	.st17{fill:#406187;}
	.st18{fill:#66C1DC;}
	.st19{fill:url(#SVGID_21_);}
	.st20{fill:url(#SVGID_22_);}
	.st21{fill:url(#SVGID_23_);}
	.st22{fill:#F8FAFB;}
	.st23{fill:#528FCC;}
	.st24{fill:#6FBC46;}
	.st25{fill:#F09521;}
	.st26{fill:#E02228;}
	.st27{fill:none;stroke:#F7F6F8;stroke-miterlimit:10;}
	.st28{fill:#939393;}
	.st29{fill:#DCDBDD;}
	.st30{fill:url(#SVGID_26_);}
	.st31{fill:url(#SVGID_27_);}
	.st32{fill:url(#SVGID_28_);}
	.st33{fill:url(#SVGID_29_);}
	.st34{fill:url(#SVGID_30_);}
	.st35{fill:url(#SVGID_31_);}
	.st36{fill:url(#SVGID_32_);}
	.st37{fill:url(#SVGID_33_);}
	.st38{fill:url(#SVGID_34_);}
	.st39{fill:url(#SVGID_35_);}
	.st40{fill:url(#SVGID_36_);}
	.st41{fill:#365677;}
	.st42{fill:#5990BF;}
	.st43{fill:none;stroke:#DCDBDD;stroke-width:2;stroke-miterlimit:10;}
	.st44{fill:none;}
	.st45{fill:#F9D8A1;}
	.st46{fill:#519C9E;}
	.st47{fill:#2F4F5E;}
	.st48{fill:#9ED4DB;}
	.st49{fill:#B78253;}
	.st50{fill:#5B4324;}
	.st51{fill:#286394;}
	.st52{fill:#FFFFFF;stroke:#CCCCCC;stroke-miterlimit:10;}
	.st53{fill:#6DBE46;}
	.st54{fill:#EDB54C;}
	.st55{fill:#1AB8D9;}
	.st56{fill:#2A4551;}
	.st57{fill:#3D6479;}
	.st58{fill:#242322;}
	.st59{fill:#8F652C;}
	.st60{fill:#F8F7F9;}
	.st61{fill:none;stroke:#75ABCB;stroke-miterlimit:10;}
	.st62{fill:none;stroke:#ED1C24;stroke-miterlimit:10;}
	.st63{fill:#CEDDA2;}
	.st64{fill:url(#SVGID_37_);}
	.st65{fill:#9CA76E;}
	.st66{fill:#72723E;}
	.st67{fill:#494728;}
</style>
<polygon class="st63" points="4,0 31,0 31,13 4,13 0,7 "/>
<g>
	<path class="st66" d="M11.8,10h-1.3L7.2,4.9C7.1,4.7,7,4.6,7,4.4h0c0,0.1,0,0.5,0,1V10H5.9V3h1.4l3.2,5c0.1,0.2,0.2,0.4,0.3,0.4h0
		c0-0.2,0-0.5,0-0.9V3h1.1V10z"/>
	<path class="st66" d="M17.5,10h-3.9V3h3.8v1h-2.6v2h2.4v1h-2.4V9h2.8V10z"/>
	<path class="st66" d="M27.6,3l-1.9,7h-1.3L23,5.1c-0.1-0.2-0.1-0.4-0.1-0.7h0c0,0.2-0.1,0.5-0.1,0.7L21.4,10h-1.3l-2-7h1.3l1.3,5.1
		c0.1,0.2,0.1,0.4,0.1,0.7h0c0-0.2,0.1-0.4,0.1-0.7L22.4,3h1.2l1.3,5.2c0,0.2,0.1,0.4,0.1,0.6h0c0-0.2,0-0.4,0.1-0.6L26.4,3H27.6z"
		/>
</g>
</svg>
