<?xml version="1.0" encoding="utf-8"?>
<!-- Generator: Adobe Illustrator 19.2.1, SVG Export Plug-In . SVG Version: 6.00 Build 0)  -->
<svg version="1.1" id="Layer_1" xmlns="http://www.w3.org/2000/svg" xmlns:xlink="http://www.w3.org/1999/xlink" x="0px" y="0px"
	 viewBox="0 0 50 13" style="enable-background:new 0 0 50 13;" xml:space="preserve">
<style type="text/css">
	.st0{fill:#FFFFFF;}
	.st1{fill:url(#SVGID_1_);}
	.st2{fill:url(#SVGID_2_);}
	.st3{fill:url(#SVGID_5_);}
	.st4{fill:none;stroke:#F3F3F3;stroke-width:2;stroke-miterlimit:10;}
	.st5{fill:#F8F9FA;}
	.st6{fill:#2E2E2E;}
	.st7{fill:#4FA1D9;}
	.st8{fill:url(#SVGID_6_);}
	.st9{fill:url(#SVGID_7_);}
	.st10{fill:none;stroke:#393939;stroke-miterlimit:10;}
	.st11{fill:none;stroke:#DEDEDD;stroke-miterlimit:10;}
	.st12{clip-path:url(#SVGID_15_);}
	.st13{fill:#F3F3F3;}
	.st14{fill:#C1C1C1;}
	.st15{fill:#AAABAB;}
	.st16{fill:#406187;}
	.st17{fill:#66C1DC;}
	.st18{fill:url(#SVGID_18_);}
	.st19{fill:url(#SVGID_19_);}
	.st20{fill:url(#SVGID_20_);}
	.st21{fill:#F8FAFB;}
	.st22{fill:#528FCC;}
	.st23{fill:#6FBC46;}
	.st24{fill:#F09521;}
	.st25{fill:#E02228;}
	.st26{fill:none;stroke:#F7F6F8;stroke-miterlimit:10;}
	.st27{fill:#939393;}
	.st28{fill:#DCDBDD;}
	.st29{fill:url(#SVGID_23_);}
	.st30{fill:url(#SVGID_24_);}
	.st31{fill:url(#SVGID_25_);}
	.st32{fill:url(#SVGID_26_);}
	.st33{fill:url(#SVGID_27_);}
	.st34{fill:url(#SVGID_28_);}
	.st35{fill:url(#SVGID_29_);}
	.st36{fill:url(#SVGID_30_);}
	.st37{fill:url(#SVGID_31_);}
	.st38{fill:url(#SVGID_32_);}
	.st39{fill:url(#SVGID_33_);}
	.st40{fill:#365677;}
	.st41{fill:none;stroke:#DCDBDD;stroke-width:2;stroke-miterlimit:10;}
	.st42{fill:none;}
	.st43{fill:#F9D8A1;}
	.st44{fill:#8F652C;}
</style>
<polygon class="st43" points="4,0 50,0 50,13 4,13 0,7 "/>
<g>
	<path class="st44" d="M7.2,7.5V10H6V3h2.1C8.9,3,9.6,3.2,10,3.6s0.7,0.9,0.7,1.6S10.4,6.4,10,6.8S8.9,7.5,8.1,7.5H7.2z M7.2,4v2.6
		h0.8c0.5,0,0.9-0.1,1.1-0.3c0.3-0.2,0.4-0.6,0.4-1C9.4,4.4,9,4,8,4H7.2z"/>
	<path class="st44" d="M17.3,10h-1.4l-1.1-1.9c-0.1-0.2-0.2-0.3-0.3-0.4c-0.1-0.1-0.2-0.2-0.3-0.3S14,7.2,13.9,7.2s-0.2-0.1-0.4-0.1
		H13V10h-1.2V3h2.3c0.3,0,0.6,0,0.9,0.1c0.3,0.1,0.5,0.2,0.7,0.4c0.2,0.2,0.4,0.4,0.5,0.6c0.1,0.2,0.2,0.5,0.2,0.8
		c0,0.2,0,0.5-0.1,0.7C16.3,5.8,16.1,6,16,6.1c-0.1,0.2-0.3,0.3-0.5,0.4s-0.4,0.2-0.6,0.3v0C15,6.9,15.1,7,15.2,7.1
		c0.1,0.1,0.2,0.2,0.3,0.3s0.2,0.2,0.3,0.3C15.8,7.7,15.9,7.9,16,8L17.3,10z M13,3.9v2.3h1c0.2,0,0.3,0,0.5-0.1
		c0.2-0.1,0.3-0.1,0.4-0.2s0.2-0.2,0.3-0.4s0.1-0.3,0.1-0.5c0-0.3-0.1-0.6-0.3-0.8S14.4,3.9,14,3.9H13z"/>
	<path class="st44" d="M22,10h-3.9V3h3.8v1h-2.6v2h2.4v1h-2.4V9H22V10z"/>
	<path class="st44" d="M28.7,3l-2.5,7h-1.3l-2.5-7h1.3l1.7,5.3c0.1,0.2,0.1,0.4,0.1,0.6h0c0-0.2,0.1-0.4,0.1-0.6L27.5,3H28.7z"/>
	<path class="st44" d="M30.9,10h-1.2V3h1.2V10z"/>
	<path class="st44" d="M36.5,10h-3.9V3h3.8v1h-2.6v2h2.4v1h-2.4V9h2.8V10z"/>
	<path class="st44" d="M46.6,3l-1.9,7h-1.3L42,5.1C42,4.9,42,4.7,41.9,4.4h0c0,0.2-0.1,0.5-0.1,0.7L40.5,10h-1.3l-2-7h1.3l1.3,5.1
		c0.1,0.2,0.1,0.4,0.1,0.7h0c0-0.2,0.1-0.4,0.1-0.7L41.4,3h1.2l1.3,5.2C44,8.3,44,8.5,44,8.8h0c0-0.2,0-0.4,0.1-0.6L45.4,3H46.6z"/>
</g>
</svg>
